<svg width="389" height="80" viewBox="0 0 389 80" fill="none" xmlns="http://www.w3.org/2000/svg">
<path d="M0 16C0 7.16344 7.16344 0 16 0H96V80H16C7.16345 80 0 72.8366 0 64V16Z" fill="url(#paint0_linear_662_65)"/>
<path d="M18.2573 21.0085C15.3314 20.9741 15.3257 24.9235 18.2573 24.8892H33.7044C36.6418 24.9334 36.6476 20.9643 33.7044 21.0085H18.2573ZM41.0422 21.0109C41.0422 21.0096 41.0411 21.0085 41.0397 21.0085C38.1277 20.9764 38.1114 24.9235 41.0422 24.8892H77.7484C78.9942 24.8892 80 24.0208 80 22.9562C80 21.8818 78.9942 21.0134 77.7484 21.0134H41.0447C41.0433 21.0134 41.0422 21.0123 41.0422 21.0109ZM18.2573 27.72C15.3371 27.6857 15.3199 31.64 18.2573 31.6007H43.591C44.8369 31.6007 45.8427 30.7324 45.8427 29.6628C45.8484 28.5933 44.8369 27.72 43.591 27.72H18.2573ZM18.2573 34.4438C18.2573 34.4425 18.2562 34.4414 18.2548 34.4414C15.3428 34.4093 15.3208 38.3466 18.2573 38.3123H55.1635C56.4093 38.3123 57.4151 37.4439 57.4151 36.3793C57.4151 35.3098 56.4036 34.4463 55.1635 34.4463H18.2598C18.2584 34.4463 18.2573 34.4452 18.2573 34.4438ZM77.7484 58.9915C80.6743 59.0258 80.6801 55.0764 77.7484 55.1108H62.3013C59.3639 55.0666 59.3582 59.0357 62.3013 58.9915H77.7484ZM54.9578 58.9915C57.8723 59.0258 57.8895 55.0764 54.9578 55.1108H18.2516C17.0115 55.1157 16 55.9792 16 57.0487C16 58.1231 17.0058 58.9915 18.2516 58.9915H54.9578ZM77.7484 52.28C80.6686 52.3143 80.6858 48.36 77.7484 48.3992H52.4147C51.1689 48.3992 50.1631 49.2676 50.1631 50.3371C50.1573 51.4067 51.1689 52.28 52.4147 52.28H77.7484ZM77.7484 45.5562C77.7484 45.5575 77.7495 45.5586 77.7509 45.5586C80.6629 45.5907 80.6849 41.6534 77.7484 41.6877H40.8422C39.5964 41.6877 38.5906 42.5561 38.5906 43.6207C38.5906 44.6902 39.6021 45.5537 40.8422 45.5537H77.7459C77.7473 45.5537 77.7484 45.5548 77.7484 45.5562Z" fill="url(#paint1_linear_662_65)"/>
<path d="M96 0H372.363C381.199 0 388.363 7.16344 388.363 16V64C388.363 72.8366 381.199 80 372.363 80H96V0Z" fill="url(#paint2_linear_662_65)"/>
<g filter="url(#filter0_d_662_65)">
<path d="M138.989 37.2955L134.773 38.4886C134.508 37.786 134.116 37.1032 133.599 36.4404C133.096 35.7642 132.406 35.2074 131.531 34.7699C130.656 34.3324 129.536 34.1136 128.17 34.1136C126.301 34.1136 124.743 34.5445 123.497 35.4063C122.264 36.2547 121.648 37.3352 121.648 38.6477C121.648 39.8144 122.072 40.7358 122.92 41.4119C123.769 42.0881 125.095 42.6515 126.898 43.1023L131.432 44.2159C134.163 44.8788 136.198 45.893 137.537 47.2585C138.876 48.6108 139.545 50.3542 139.545 52.4887C139.545 54.2387 139.042 55.803 138.034 57.1818C137.04 58.5606 135.648 59.6477 133.858 60.4432C132.068 61.2387 129.987 61.6364 127.614 61.6364C124.498 61.6364 121.92 60.9602 119.878 59.608C117.836 58.2557 116.544 56.2803 116 53.6818L120.455 52.5682C120.879 54.2121 121.681 55.4451 122.861 56.2671C124.054 57.089 125.612 57.5 127.534 57.5C129.722 57.5 131.458 57.036 132.744 56.108C134.044 55.1667 134.693 54.0398 134.693 52.7273C134.693 51.6667 134.322 50.7784 133.58 50.0625C132.837 49.3333 131.697 48.7898 130.159 48.4318L125.068 47.2386C122.271 46.5758 120.216 45.5483 118.903 44.1563C117.604 42.751 116.955 40.9943 116.955 38.8864C116.955 37.1629 117.438 35.6383 118.406 34.3125C119.387 32.9868 120.72 31.946 122.403 31.1904C124.1 30.4347 126.023 30.0568 128.17 30.0568C131.193 30.0568 133.566 30.7197 135.29 32.0455C137.027 33.3712 138.259 35.1212 138.989 37.2955Z" fill="white"/>
<path d="M147.246 61V20.2727H151.94V35.3068H152.337C152.682 34.7765 153.159 34.1004 153.769 33.2784C154.392 32.4432 155.281 31.7008 156.434 31.0512C157.601 30.3883 159.178 30.0568 161.167 30.0568C163.739 30.0568 166.006 30.6998 167.968 31.9858C169.93 33.2718 171.461 35.0947 172.562 37.4546C173.662 39.8144 174.212 42.5985 174.212 45.8068C174.212 49.0417 173.662 51.8457 172.562 54.2188C171.461 56.5786 169.937 58.4082 167.988 59.7074C166.039 60.9934 163.792 61.6364 161.246 61.6364C159.284 61.6364 157.713 61.3116 156.533 60.6619C155.353 59.9991 154.445 59.25 153.809 58.4148C153.173 57.5663 152.682 56.8637 152.337 56.3068H151.781V61H147.246ZM151.86 45.7273C151.86 48.0341 152.198 50.0691 152.874 51.8324C153.55 53.5824 154.538 54.9546 155.837 55.9489C157.137 56.9299 158.728 57.4205 160.61 57.4205C162.572 57.4205 164.21 56.9034 165.522 55.8693C166.848 54.822 167.842 53.4167 168.505 51.6534C169.181 49.8769 169.519 47.9015 169.519 45.7273C169.519 43.5796 169.188 41.644 168.525 39.9205C167.875 38.1837 166.888 36.8116 165.562 35.804C164.249 34.7832 162.599 34.2727 160.61 34.2727C158.701 34.2727 157.097 34.7566 155.798 35.7244C154.498 36.679 153.517 38.018 152.854 39.7415C152.192 41.4517 151.86 43.447 151.86 45.7273Z" fill="white"/>
<path d="M193.8 61.6364C191.043 61.6364 188.623 60.9801 186.542 59.6676C184.474 58.3551 182.856 56.519 181.69 54.1591C180.536 51.7993 179.96 49.0417 179.96 45.8864C179.96 42.7046 180.536 39.9271 181.69 37.554C182.856 35.1809 184.474 33.3381 186.542 32.0256C188.623 30.7131 191.043 30.0568 193.8 30.0568C196.558 30.0568 198.971 30.7131 201.039 32.0256C203.12 33.3381 204.738 35.1809 205.891 37.554C207.058 39.9271 207.641 42.7046 207.641 45.8864C207.641 49.0417 207.058 51.7993 205.891 54.1591C204.738 56.519 203.12 58.3551 201.039 59.6676C198.971 60.9801 196.558 61.6364 193.8 61.6364ZM193.8 57.4205C195.895 57.4205 197.619 56.8835 198.971 55.8097C200.323 54.7358 201.324 53.3239 201.974 51.5739C202.623 49.8239 202.948 47.928 202.948 45.8864C202.948 43.8447 202.623 41.9422 201.974 40.179C201.324 38.4157 200.323 36.9905 198.971 35.9034C197.619 34.8163 195.895 34.2727 193.8 34.2727C191.706 34.2727 189.982 34.8163 188.63 35.9034C187.278 36.9905 186.277 38.4157 185.627 40.179C184.978 41.9422 184.653 43.8447 184.653 45.8864C184.653 47.928 184.978 49.8239 185.627 51.5739C186.277 53.3239 187.278 54.7358 188.63 55.8097C189.982 56.8835 191.706 57.4205 193.8 57.4205Z" fill="white"/>
<path d="M214.805 61V30.4546H219.339V35.2273H219.737C220.374 33.5966 221.401 32.3305 222.82 31.429C224.238 30.5142 225.942 30.0568 227.93 30.0568C229.946 30.0568 231.623 30.5142 232.962 31.429C234.314 32.3305 235.368 33.5966 236.124 35.2273H236.442C237.224 33.6496 238.397 32.3968 239.962 31.4688C241.526 30.5275 243.402 30.0568 245.589 30.0568C248.321 30.0568 250.554 30.9119 252.291 32.6222C254.028 34.3191 254.896 36.964 254.896 40.5568V61H250.203V40.5568C250.203 38.303 249.587 36.6922 248.354 35.7244C247.121 34.7566 245.669 34.2727 243.999 34.2727C241.851 34.2727 240.187 34.9224 239.007 36.2216C237.827 37.5076 237.237 39.1383 237.237 41.1136V61H232.464V40.0796C232.464 38.3428 231.901 36.9441 230.774 35.8835C229.647 34.8097 228.196 34.2727 226.419 34.2727C225.199 34.2727 224.059 34.5975 222.999 35.2472C221.951 35.8968 221.103 36.7983 220.453 37.9517C219.817 39.0919 219.499 40.411 219.499 41.9091V61H214.805Z" fill="white"/>
<path d="M263.477 61V30.4546H268.17V61H263.477ZM265.864 25.3637C264.949 25.3637 264.16 25.0521 263.497 24.429C262.848 23.8059 262.523 23.0568 262.523 22.1818C262.523 21.3068 262.848 20.5578 263.497 19.9347C264.16 19.3116 264.949 19 265.864 19C266.778 19 267.561 19.3116 268.21 19.9347C268.873 20.5578 269.205 21.3068 269.205 22.1818C269.205 23.0568 268.873 23.8059 268.21 24.429C267.561 25.0521 266.778 25.3637 265.864 25.3637Z" fill="white"/>
<path d="M290.369 30.4546V34.4318H273.903V30.4546H290.369ZM278.835 61V26.2387C278.835 24.4886 279.245 23.0303 280.067 21.8636C280.889 20.697 281.957 19.822 283.269 19.2386C284.582 18.6553 285.967 18.3636 287.425 18.3636C288.579 18.3636 289.52 18.4565 290.249 18.6421C290.978 18.8277 291.522 19 291.88 19.1591L290.528 23.2159C290.289 23.1364 289.958 23.0369 289.533 22.9176C289.122 22.7983 288.579 22.7386 287.903 22.7386C286.352 22.7386 285.231 23.1297 284.542 23.9119C283.866 24.6941 283.528 25.8409 283.528 27.3523V61H278.835Z" fill="white"/>
<path d="M296.946 61V30.4546H301.639V61H296.946ZM299.332 25.3637C298.418 25.3637 297.629 25.0521 296.966 24.429C296.316 23.8059 295.991 23.0568 295.991 22.1818C295.991 21.3068 296.316 20.5578 296.966 19.9347C297.629 19.3116 298.418 19 299.332 19C300.247 19 301.029 19.3116 301.679 19.9347C302.342 20.5578 302.673 21.3068 302.673 22.1818C302.673 23.0568 302.342 23.8059 301.679 24.429C301.029 25.0521 300.247 25.3637 299.332 25.3637Z" fill="white"/>
<path d="M323.042 61.6364C320.099 61.6364 317.56 60.9868 315.425 59.6875C313.304 58.375 311.667 56.5455 310.513 54.1989C309.373 51.839 308.803 49.0947 308.803 45.9659C308.803 42.8371 309.373 40.0796 310.513 37.6932C311.667 35.2936 313.271 33.4243 315.326 32.0852C317.394 30.733 319.807 30.0568 322.565 30.0568C324.156 30.0568 325.727 30.322 327.278 30.8523C328.829 31.3826 330.241 32.2443 331.513 33.4375C332.786 34.6174 333.8 36.1818 334.556 38.1307C335.312 40.0796 335.69 42.4792 335.69 45.3296V47.3182H312.144V43.2614H330.917C330.917 41.5379 330.572 40 329.883 38.6477C329.207 37.2955 328.239 36.2282 326.979 35.446C325.733 34.6638 324.262 34.2727 322.565 34.2727C320.695 34.2727 319.078 34.7368 317.712 35.6648C316.36 36.5796 315.319 37.7727 314.59 39.2443C313.861 40.7159 313.496 42.2936 313.496 43.9773V46.6818C313.496 48.9886 313.894 50.9441 314.69 52.5483C315.498 54.1392 316.619 55.3523 318.05 56.1875C319.482 57.0095 321.146 57.4205 323.042 57.4205C324.275 57.4205 325.388 57.2481 326.383 56.9034C327.39 56.5455 328.259 56.0152 328.988 55.3125C329.717 54.5966 330.281 53.7083 330.678 52.6477L335.212 53.9205C334.735 55.4583 333.933 56.8106 332.806 57.9773C331.679 59.1307 330.287 60.0322 328.63 60.6818C326.973 61.3182 325.11 61.6364 323.042 61.6364Z" fill="white"/>
<path d="M354.363 61.6364C351.817 61.6364 349.57 60.9934 347.621 59.7074C345.673 58.4082 344.148 56.5786 343.048 54.2188C341.947 51.8457 341.397 49.0417 341.397 45.8068C341.397 42.5985 341.947 39.8144 343.048 37.4546C344.148 35.0947 345.679 33.2718 347.641 31.9858C349.603 30.6998 351.87 30.0568 354.442 30.0568C356.431 30.0568 358.002 30.3883 359.156 31.0512C360.322 31.7008 361.21 32.4432 361.82 33.2784C362.443 34.1004 362.927 34.7765 363.272 35.3068H363.67V20.2727H368.363V61H363.829V56.3068H363.272C362.927 56.8637 362.437 57.5663 361.8 58.4148C361.164 59.25 360.256 59.9991 359.076 60.6619C357.896 61.3116 356.325 61.6364 354.363 61.6364ZM354.999 57.4205C356.882 57.4205 358.473 56.9299 359.772 55.9489C361.071 54.9546 362.059 53.5824 362.735 51.8324C363.411 50.0691 363.749 48.0341 363.749 45.7273C363.749 43.447 363.418 41.4517 362.755 39.7415C362.092 38.018 361.111 36.679 359.812 35.7244C358.513 34.7566 356.908 34.2727 354.999 34.2727C353.011 34.2727 351.353 34.7832 350.028 35.804C348.715 36.8116 347.728 38.1837 347.065 39.9205C346.415 41.644 346.09 43.5796 346.09 45.7273C346.09 47.9015 346.422 49.8769 347.085 51.6534C347.761 53.4167 348.755 54.822 350.067 55.8693C351.393 56.9034 353.037 57.4205 354.999 57.4205Z" fill="white"/>
</g>
<defs>
<filter id="filter0_d_662_65" x="116" y="18.3636" width="255.363" height="46.2727" filterUnits="userSpaceOnUse" color-interpolation-filters="sRGB">
<feFlood flood-opacity="0" result="BackgroundImageFix"/>
<feColorMatrix in="SourceAlpha" type="matrix" values="0 0 0 0 0 0 0 0 0 0 0 0 0 0 0 0 0 0 127 0" result="hardAlpha"/>
<feOffset dx="3" dy="3"/>
<feComposite in2="hardAlpha" operator="out"/>
<feColorMatrix type="matrix" values="0 0 0 0 0 0 0 0 0 0 0 0 0 0 0 0 0 0 0.25 0"/>
<feBlend mode="normal" in2="BackgroundImageFix" result="effect1_dropShadow_662_65"/>
<feBlend mode="normal" in="SourceGraphic" in2="effect1_dropShadow_662_65" result="shape"/>
</filter>
<linearGradient id="paint0_linear_662_65" x1="48" y1="0" x2="48" y2="80" gradientUnits="userSpaceOnUse">
<stop stop-color="#141035"/>
<stop offset="1" stop-color="#0A081B"/>
</linearGradient>
<linearGradient id="paint1_linear_662_65" x1="16" y1="40" x2="81.2822" y2="46.9528" gradientUnits="userSpaceOnUse">
<stop offset="0.06" stop-color="#4059D0"/>
<stop offset="0.555" stop-color="#CC58BB"/>
<stop offset="1" stop-color="#F4B57F"/>
</linearGradient>
<linearGradient id="paint2_linear_662_65" x1="242.181" y1="80" x2="242.181" y2="34" gradientUnits="userSpaceOnUse">
<stop stop-color="#6E59CA"/>
<stop offset="1" stop-color="#415AD0"/>
</linearGradient>
</defs>
</svg>
