<svg width="257" height="257" viewBox="0 0 257 257" fill="none" xmlns="http://www.w3.org/2000/svg">
<circle cx="128.5" cy="128.5" r="128.5" fill="#141035"/>
<path d="M63.9379 80.0009C57.5374 79.9132 57.5249 89.9989 63.9379 89.9112H97.7285C104.154 90.024 104.167 79.8882 97.7285 80.0009H63.9379ZM113.78 80.0009C107.404 79.9132 107.367 89.9989 113.78 89.9112H194.075C196.8 89.9112 199 87.6936 199 84.9749C199 82.2311 196.8 80.0135 194.075 80.0135H113.78V80.0009ZM63.9379 97.1404C57.5499 97.0527 57.5124 107.151 63.9379 107.051H119.355C122.081 107.051 124.281 104.833 124.281 102.102C124.293 99.3705 122.081 97.1404 119.355 97.1404H63.9379ZM63.9379 114.305C57.5624 114.217 57.5124 124.278 63.9379 124.19H144.67C147.395 124.19 149.596 121.972 149.596 119.254C149.596 116.522 147.383 114.317 144.67 114.317H63.9379V114.305ZM194.075 176.999C200.475 177.087 200.488 167.001 194.075 167.089H160.284C153.858 166.976 153.846 177.112 160.284 176.999H194.075ZM144.22 176.999C150.596 177.087 150.633 167.001 144.22 167.089H63.9254C61.2127 167.101 59 169.306 59 172.038C59 174.781 61.2002 176.999 63.9254 176.999H144.22ZM194.075 159.86C200.463 159.947 200.5 149.849 194.075 149.949H138.657C135.932 149.949 133.732 152.167 133.732 154.898C133.719 157.63 135.932 159.86 138.657 159.86H194.075ZM194.075 142.695C200.45 142.783 200.5 132.722 194.075 132.81H113.342C110.617 132.81 108.417 135.028 108.417 137.746C108.417 140.478 110.63 142.683 113.342 142.683H194.075V142.695Z" fill="url(#paint0_linear_396_297)"/>
<defs>
<linearGradient id="paint0_linear_396_297" x1="59" y1="128.5" x2="202.233" y2="141.567" gradientUnits="userSpaceOnUse">
<stop offset="0.06" stop-color="#4059D0"/>
<stop offset="0.555" stop-color="#CC58BB"/>
<stop offset="1" stop-color="#F4B57F"/>
</linearGradient>
</defs>
</svg>
