<svg width="135" height="32" viewBox="0 0 135 32" fill="none" xmlns="http://www.w3.org/2000/svg">
<g id="Logo">
<path id="Union" fill-rule="evenodd" clip-rule="evenodd" d="M4.84715 21.2072L0.85566 18.9024C0.604088 18.757 0.385687 18.546 0.229704 18.2761C0.0737212 18.0062 0.000287748 17.7112 0.000287748 17.4203V12.6476C0.000287748 11.6909 0.241605 10.722 0.75412 9.83471C1.26625 8.94743 1.98502 8.25311 2.81253 7.77567L14.2947 1.14339C14.5799 0.978925 14.904 0.892578 15.2337 0.892578C15.5517 0.892578 15.8743 0.973101 16.1693 1.14339L21.8712 4.43712C21.5755 4.26683 21.2536 4.18529 20.9351 4.18529C20.606 4.18529 20.282 4.27265 19.9968 4.43712L8.51439 11.0684C7.68687 11.5458 6.96849 12.2401 6.45635 13.1274C5.94346 14.0148 5.7029 14.9836 5.7029 15.9403V20.7134C5.7029 20.9102 5.60022 21.1019 5.4174 21.2072C5.23457 21.3129 5.01744 21.3057 4.84715 21.2072ZM21.3811 5.28396C21.2429 5.20407 21.0921 5.16368 20.9339 5.16368C20.7766 5.16368 20.6202 5.20508 20.4844 5.28396L16.1278 7.80019L20.9747 10.5991C21.145 10.6976 21.3621 10.7048 21.5446 10.5991C21.7274 10.4938 21.8297 10.3021 21.8297 10.1054V6.06172C21.8297 5.74216 21.658 5.44374 21.3811 5.28396ZM17.8346 12.0454L21.016 13.883C21.2559 14.0214 21.4643 14.2222 21.6123 14.4794C21.7608 14.7363 21.8304 15.017 21.8304 15.294V16.0509V19.5492C21.8304 20.3642 21.6147 21.1675 21.2075 21.8734C20.8007 22.579 20.2131 23.1672 19.5077 23.5746L8.02406 30.2059C7.88808 30.2848 7.73248 30.3262 7.57447 30.3262C7.41672 30.3262 7.26631 30.2858 7.12716 30.2059C6.85128 30.0462 6.6796 29.7488 6.6796 29.4294V25.338C6.6796 25.0608 6.60958 24.7803 6.4612 24.5231L13.805 20.2818C14.5111 19.8744 15.0989 19.286 15.506 18.5805C15.6501 18.3304 15.7701 18.0687 15.8656 17.7982C16.0389 17.3045 16.1286 16.7821 16.1286 16.2564V12.0482C16.1286 11.8514 16.231 11.6597 16.4137 11.5544C16.5967 11.4491 16.8134 11.4559 16.9841 11.5544L17.8346 12.0454ZM5.70274 25.9032V29.4301C5.70274 30.0776 6.03843 30.7062 6.63787 31.0525L0.936909 27.7603C0.336528 27.4131 0 26.7839 0 26.1366V22.6572C0 22.4606 0.10268 22.2688 0.285124 22.1632C0.467948 22.0578 0.68521 22.065 0.855373 22.1632L4.88763 24.4918C5.1273 24.6302 5.3357 24.831 5.48408 25.0883C5.63272 25.3455 5.70274 25.6262 5.70274 25.9032Z" fill="url(#paint0_linear_528_137)"/>
<g id="Blueprint Wireframe">
<path d="M33.4644 19.436L36.5317 19.4902C36.6946 21.716 38.4589 23.209 41.1191 23.209C43.372 23.209 45.0007 22.2046 45.0007 20.386C45.0007 18.3773 43.0191 17.943 40.0062 17.4002C36.8574 16.8573 33.8716 15.8529 33.8716 12.0799C33.8716 8.79552 36.6403 6.48828 40.6305 6.48828C44.7835 6.48828 47.6336 8.95838 47.7965 12.3785H44.7292C44.5121 10.4513 42.9106 9.12125 40.6305 9.12125C38.4861 9.12125 36.9932 10.0713 36.9932 11.8628C36.9932 13.8172 38.9475 14.2243 41.9334 14.74C45.0821 15.3101 48.1494 16.3144 48.1222 20.0603C48.1222 23.4261 45.1907 25.8419 41.0919 25.8419C36.5046 25.8419 33.5459 23.1818 33.4644 19.436Z" fill="white"/>
<path d="M62.6296 20.6846C62.0867 23.8604 59.7794 25.8419 56.2236 25.8419C52.0434 25.8419 49.3018 22.9918 49.3018 18.7031C49.3018 14.4415 52.0705 11.6185 56.305 11.6185C59.8066 11.6185 62.0867 13.6 62.6296 16.7216H59.6166C59.2366 15.1472 57.9879 14.1157 56.2236 14.1157C53.862 14.1157 52.3148 15.9887 52.3148 18.7031C52.3148 21.4446 53.862 23.3447 56.2236 23.3447C58.0422 23.3447 59.2908 22.3132 59.6437 20.6846H62.6296Z" fill="white"/>
<path d="M71.2564 11.7814H71.9078V14.5229H70.6049C67.9991 14.5229 67.1576 16.5587 67.1576 18.7031V25.6791H64.2261V11.7814H66.8319L67.1576 13.8714C67.8634 12.7042 68.9763 11.7814 71.2564 11.7814Z" fill="white"/>
<path d="M71.8365 18.7574C71.8365 14.4415 74.578 11.6185 78.5953 11.6185C82.6127 11.6185 85.3814 14.17 85.4628 18.2416C85.4628 18.5945 85.4357 18.9745 85.3814 19.3545H74.9038V19.5174C75.0395 21.9061 76.4781 23.4533 78.7854 23.4533C80.5769 23.4533 81.8798 22.5575 82.2869 21.0103H85.2185C84.7299 23.7518 82.4227 25.8419 79.0025 25.8419C74.6052 25.8419 71.8365 23.019 71.8365 18.7574ZM75.0123 17.2101H82.4769C82.2327 15.1472 80.7397 13.98 78.7039 13.98C76.831 13.98 75.2295 15.2286 75.0123 17.2101Z" fill="white"/>
<path d="M86.5631 18.7574C86.5631 14.4415 89.3046 11.6185 93.3219 11.6185C97.3393 11.6185 100.108 14.17 100.189 18.2416C100.189 18.5945 100.162 18.9745 100.108 19.3545H89.6303V19.5174C89.7661 21.9061 91.2047 23.4533 93.512 23.4533C95.3035 23.4533 96.6064 22.5575 97.0135 21.0103H99.9451C99.4565 23.7518 97.1493 25.8419 93.7291 25.8419C89.3318 25.8419 86.5631 23.019 86.5631 18.7574ZM89.7389 17.2101H97.2035C96.9593 15.1472 95.4663 13.98 93.4305 13.98C91.5576 13.98 89.9561 15.2286 89.7389 17.2101Z" fill="white"/>
<path d="M109.134 11.6185C112.12 11.6185 114.726 13.22 114.726 18.0245V25.6791H111.767V18.1873C111.767 15.5544 110.654 14.1429 108.456 14.1429C106.121 14.1429 104.737 15.8529 104.737 18.6759V25.6791H101.805V11.7814H104.357L104.683 13.6C105.551 12.5142 106.881 11.6185 109.134 11.6185Z" fill="white"/>
<path d="M116.638 6.67829H119.57V25.6791H116.638V6.67829Z" fill="white"/>
<path d="M120.305 11.7814H123.426L127.308 22.5032L131.081 11.7814H134.203L127.905 27.8506C127.037 30.1035 126.439 31.1079 124.404 31.1079H121.255V28.5292H123.318C124.458 28.5292 124.702 28.2577 125.164 27.1177L125.734 25.7876L120.305 11.7814Z" fill="white"/>
</g>
</g>
<defs>
<linearGradient id="paint0_linear_528_137" x1="7.85117" y1="8.51365" x2="21.8032" y2="10.4685" gradientUnits="userSpaceOnUse">
<stop stop-color="#972EFF"/>
<stop offset="1" stop-color="#3153FC"/>
</linearGradient>
</defs>
</svg>
