<svg width="124" height="32" viewBox="0 0 124 32" fill="none" xmlns="http://www.w3.org/2000/svg">
<g id="Group">
<path id="Vector" d="M58.3376 9.39317C57.6821 9.37269 57.1495 9.8848 57.129 10.5198V16.4194C54.3226 14.1661 50.2052 14.6168 47.9519 17.4232C47.0301 18.5908 46.5179 20.0247 46.5179 21.5201C46.4565 25.1254 49.3243 28.0957 52.9296 28.1572C56.535 28.2186 59.5052 25.3508 59.5667 21.7454V10.6018C59.5667 10.274 59.4438 9.96675 59.2184 9.74141C58.9726 9.51608 58.6654 9.39317 58.3376 9.39317ZM56.8013 23.0974C56.3916 24.0807 55.6131 24.8591 54.6299 25.2893C53.6056 25.7195 52.4585 25.7195 51.4343 25.2893C50.451 24.8796 49.6931 24.0807 49.2834 23.1179C48.8532 22.1142 48.8532 20.967 49.2834 19.9428C49.6931 18.9595 50.4715 18.1811 51.4343 17.7714C52.4585 17.3412 53.6056 17.3412 54.6299 17.7714C55.6131 18.2016 56.3916 18.98 56.8013 19.9633C57.2314 20.9465 57.2314 22.0937 56.8013 23.0974ZM71.9599 16.9111C69.4198 14.371 65.2819 14.371 62.7418 16.9111C61.5127 18.1401 60.8367 19.7994 60.8367 21.5201C60.7753 25.1254 63.6431 28.0957 67.2485 28.1572C70.8538 28.2186 73.824 25.3508 73.8855 21.7454V21.5201C73.8855 20.6598 73.7216 19.8199 73.3939 19.021C73.0661 18.2221 72.5745 17.5051 71.9599 16.9111ZM71.1201 23.077C70.9152 23.5686 70.6079 23.9988 70.2392 24.3675C69.8705 24.7362 69.4198 25.0435 68.9487 25.2483C67.9244 25.6785 66.7773 25.6785 65.7531 25.2483C64.7698 24.8386 63.9914 24.0397 63.5817 23.077C63.1515 22.0732 63.1515 20.9261 63.5817 19.9018C63.9914 18.9186 64.7698 18.1606 65.7531 17.7304C66.7773 17.3003 67.9244 17.3003 68.9487 17.7304C69.4403 17.9353 69.8705 18.2426 70.2392 18.6113C70.6079 18.98 70.9152 19.4307 71.1201 19.9018C71.5502 20.9465 71.5502 22.0937 71.1201 23.077ZM98.9383 16.1941C98.9383 16.0302 98.8973 15.8663 98.8359 15.7229C98.7744 15.5796 98.672 15.4566 98.5696 15.3337C98.4671 15.2313 98.3237 15.1289 98.1804 15.0674C98.037 15.006 97.8731 14.965 97.7092 14.965C97.4839 14.965 97.2585 15.0265 97.0537 15.1494L90.0889 19.6765V10.6223C90.0889 10.2945 89.966 9.98723 89.7407 9.76189C89.5153 9.53656 89.2081 9.39317 88.8803 9.39317C88.2043 9.39317 87.6717 9.92577 87.6512 10.6018V26.8052C87.6512 27.1329 87.7741 27.4402 87.9995 27.6655C88.2248 27.9113 88.5321 28.0343 88.8598 28.0343C89.1876 28.0343 89.4948 27.9113 89.7202 27.6655C89.9455 27.4402 90.0889 27.1329 90.0684 26.8052V22.6058L91.4819 21.684L96.8693 27.727C97.0947 27.9318 97.3815 28.0547 97.6887 28.0343C97.8526 28.0343 98.0165 28.0138 98.1599 27.9318C98.3033 27.8704 98.4262 27.7884 98.5491 27.6655C98.6515 27.5426 98.7539 27.4197 98.8154 27.2763C98.8768 27.1329 98.9178 26.969 98.9178 26.8052C98.9178 26.4979 98.7949 26.1906 98.59 25.9653L93.5918 20.332L98.4671 17.1569C98.7949 16.952 98.9588 16.5833 98.9383 16.1941ZM78.7199 18.6113C79.0886 18.2426 79.5393 17.9353 80.0309 17.7304C80.543 17.5256 81.0756 17.4027 81.6287 17.4027C82.1203 17.4027 82.5915 17.4846 83.0422 17.6485C83.4928 17.8329 83.923 18.0787 84.2917 18.4064C84.5171 18.5908 84.8038 18.6727 85.0906 18.6727C85.4184 18.6932 85.7461 18.5703 85.9715 18.3245C86.1968 18.0992 86.3197 17.7714 86.3197 17.4437C86.3197 17.0954 86.1763 16.7472 85.8895 16.5218C84.7219 15.4771 83.206 14.9036 81.6287 14.9445C78.0234 14.9445 75.0941 17.8738 75.0941 21.4791C75.0941 25.0845 78.0029 27.9933 81.5877 28.0138C83.1651 28.0138 84.6809 27.4607 85.869 26.4364C86.1149 26.2111 86.2583 25.8834 86.2583 25.5351C86.2787 24.8796 85.7666 24.347 85.1316 24.3265H85.0497C84.7629 24.3265 84.4966 24.4085 84.2712 24.5723C83.9025 24.9001 83.4928 25.1459 83.0422 25.3303C82.5915 25.4941 82.0999 25.5761 81.6287 25.5761C81.0756 25.5761 80.543 25.4737 80.0309 25.2483C79.5393 25.0435 79.1091 24.7362 78.7199 24.3675C77.1221 22.7697 77.1221 20.1886 78.6994 18.5908C78.7199 18.6318 78.7199 18.6318 78.7199 18.6113ZM123.131 15.8049C122.885 15.5795 122.619 15.4157 122.311 15.3132C121.963 15.1903 121.594 15.1084 121.226 15.0674C120.857 15.0265 120.488 15.006 120.119 15.006C119.382 15.006 118.624 15.1289 117.928 15.3952C117.231 15.641 116.596 16.0097 116.023 16.4604V16.2146C116.002 15.5386 115.428 15.0265 114.752 15.047C114.446 15.0572 114.155 15.1835 113.938 15.4003C113.721 15.6171 113.595 15.9081 113.585 16.2146V26.8461C113.605 27.5221 114.179 28.0342 114.855 28.0138C115.161 28.0035 115.452 27.8772 115.669 27.6604C115.886 27.4436 116.012 27.1526 116.023 26.8461V21.5406C116.023 20.9875 116.125 20.4549 116.35 19.9428C116.555 19.4512 116.842 19.021 117.231 18.6523C117.6 18.2835 118.051 17.9763 118.522 17.7714C119.034 17.5666 119.566 17.4437 120.119 17.4437C120.673 17.4437 121.205 17.5461 121.717 17.7304C121.881 17.8124 122.045 17.8534 122.229 17.8534C122.393 17.8534 122.557 17.8329 122.701 17.7509C122.844 17.6895 122.967 17.6075 123.09 17.4846C123.192 17.3822 123.295 17.2388 123.356 17.0954C123.418 16.952 123.458 16.7881 123.458 16.6243C123.479 16.317 123.356 16.0302 123.131 15.8049ZM111.823 19.021C110.778 16.6038 108.402 15.0265 105.78 15.006C102.175 15.006 99.266 17.9148 99.2456 21.5201C99.2456 25.1254 102.175 28.0547 105.78 28.0547C107.337 28.0547 108.853 27.5016 110.041 26.4774L110.082 26.4364C110.184 26.3545 110.287 26.2521 110.348 26.1292C110.737 25.5556 110.594 24.7977 110.041 24.4085C109.57 24.1012 108.955 24.1626 108.546 24.5519C108.505 24.5928 108.382 24.6952 108.382 24.7157L108.361 24.7362C108.013 25.023 107.624 25.2688 107.194 25.4122C106.743 25.5761 106.272 25.658 105.78 25.6375C105.33 25.6375 104.899 25.5761 104.469 25.4327C104.059 25.2893 103.67 25.1049 103.322 24.8386C102.974 24.5928 102.667 24.2855 102.421 23.9373C102.154 23.5891 101.97 23.1794 101.847 22.7697H111.065C111.393 22.7697 111.7 22.6468 111.926 22.4214C112.171 22.1961 112.294 21.8888 112.274 21.5611C112.294 20.6802 112.13 19.8199 111.823 19.021ZM101.847 20.332C101.97 19.9018 102.154 19.5126 102.421 19.1644C102.667 18.8161 102.974 18.5089 103.322 18.263C103.67 18.0172 104.059 17.8124 104.469 17.669C104.879 17.5256 105.33 17.4641 105.76 17.4641C106.19 17.4641 106.641 17.5256 107.05 17.669C107.87 17.9353 108.587 18.4679 109.099 19.1644C109.365 19.5126 109.549 19.9223 109.693 20.332H101.847ZM118.972 26.2726C118.501 26.2726 118.132 26.6618 118.132 27.1329C118.132 27.6041 118.522 27.9728 118.993 27.9728C119.464 27.9728 119.833 27.5836 119.833 27.1329C119.833 26.6413 119.443 26.2726 118.972 26.2726ZM118.972 27.7884C118.604 27.8089 118.296 27.5221 118.276 27.1534C118.255 26.7847 118.542 26.4774 118.911 26.4569C119.28 26.4364 119.587 26.7232 119.607 27.092V27.1329C119.628 27.4812 119.341 27.7884 118.993 27.7884H118.972Z" fill="#0091E2"/>
<path id="Vector_2" d="M119.177 27.1317C119.28 27.1112 119.341 27.0293 119.341 26.9269C119.341 26.8449 119.32 26.7835 119.259 26.7425C119.177 26.7015 119.075 26.6811 118.972 26.6811C118.87 26.6811 118.747 26.6811 118.644 26.7015V27.5414H118.829V27.2137H118.911C119.013 27.2137 119.075 27.2546 119.095 27.3366C119.116 27.398 119.136 27.48 119.157 27.5414H119.361C119.32 27.48 119.3 27.398 119.3 27.3366C119.32 27.2546 119.259 27.1727 119.177 27.1317ZM118.931 27.0703H118.829V26.8244H118.931C119.054 26.8244 119.116 26.8859 119.116 26.9474C119.136 27.0293 119.034 27.0907 118.931 27.0703ZM44.285 12.1369C44.1621 12.0345 43.0559 11.1946 40.6797 11.1946C40.0652 11.1946 39.4301 11.2561 38.8156 11.3585C38.3649 8.22434 35.7634 6.70847 35.661 6.62653L35.0259 6.25781L34.6162 6.85187C34.1041 7.65077 33.7149 8.5521 33.4896 9.47391C33.0594 11.2561 33.3257 12.9358 34.227 14.3697C33.1413 14.9843 31.3797 15.1277 31.0109 15.1482H1.92266C1.16473 15.1482 0.550189 15.7627 0.550189 16.5206C0.50922 19.0607 0.939399 21.6008 1.82024 23.9976C2.82399 26.6196 4.31937 28.5656 6.24494 29.7538C8.41631 31.0853 11.9602 31.8432 15.9547 31.8432C17.7573 31.8432 19.56 31.6793 21.3422 31.3516C23.8208 30.9009 26.197 30.0405 28.3889 28.791C30.1915 27.7463 31.8098 26.4148 33.1823 24.8579C35.4971 22.2564 36.8696 19.3475 37.8733 16.7665H38.283C40.8026 16.7665 42.3595 15.7627 43.2198 14.9024C43.7934 14.3698 44.2236 13.7142 44.5308 12.9768L44.7152 12.4442L44.285 12.1369Z" fill="#0091E2"/>
<path id="Vector_3" d="M4.62668 14.3092H8.51878C8.70314 14.3092 8.86702 14.1658 8.86702 13.961V10.4786C8.86702 10.2942 8.72362 10.1303 8.51878 10.1303H4.62668C4.44232 10.1303 4.27844 10.2737 4.27844 10.4786V13.961C4.29893 14.1658 4.44232 14.3092 4.62668 14.3092ZM9.99367 14.3092H13.8858C14.0701 14.3092 14.234 14.1658 14.234 13.961V10.4786C14.234 10.2942 14.0906 10.1303 13.8858 10.1303H9.99367C9.80931 10.1303 9.64543 10.2737 9.64543 10.4786V13.961C9.66592 14.1658 9.80931 14.3092 9.99367 14.3092ZM15.4631 14.3092H19.3552C19.5395 14.3092 19.7034 14.1658 19.7034 13.961V10.4786C19.7034 10.2942 19.56 10.1303 19.3552 10.1303H15.4631C15.2787 10.1303 15.1148 10.2737 15.1148 10.4786V13.961C15.1148 14.1658 15.2582 14.3092 15.4631 14.3092ZM20.8506 14.3092H24.7427C24.927 14.3092 25.0909 14.1658 25.0909 13.961V10.4786C25.0909 10.2942 24.9475 10.1303 24.7427 10.1303H20.8506C20.6662 10.1303 20.5023 10.2737 20.5023 10.4786V13.961C20.5023 14.1658 20.6662 14.3092 20.8506 14.3092ZM9.99367 9.33145H13.8858C14.0701 9.33145 14.234 9.16757 14.234 8.9832V5.50081C14.234 5.31644 14.0906 5.15256 13.8858 5.15256H9.99367C9.80931 5.15256 9.64543 5.29596 9.64543 5.50081V8.9832C9.66592 9.16757 9.80931 9.33145 9.99367 9.33145ZM15.4631 9.33145H19.3552C19.5395 9.33145 19.7034 9.16757 19.7034 8.9832V5.50081C19.7034 5.31644 19.56 5.15256 19.3552 5.15256H15.4631C15.2787 5.15256 15.1148 5.29596 15.1148 5.50081V8.9832C15.1148 9.16757 15.2582 9.33145 15.4631 9.33145ZM20.8506 9.33145H24.7427C24.927 9.33145 25.0909 9.16757 25.0909 8.9832V5.50081C25.0909 5.31644 24.927 5.15256 24.7427 5.15256H20.8506C20.6662 5.15256 20.5023 5.29596 20.5023 5.50081V8.9832C20.5023 9.16757 20.6662 9.33145 20.8506 9.33145ZM20.8506 4.33317H24.7427C24.927 4.33317 25.0909 4.18979 25.0909 3.98494V0.502539C25.0909 0.318177 24.927 0.154297 24.7427 0.154297H20.8506C20.6662 0.154297 20.5023 0.297692 20.5023 0.502539V3.98494C20.5023 4.1693 20.6662 4.33317 20.8506 4.33317ZM26.279 14.3092H30.1711C30.3555 14.3092 30.5193 14.1658 30.5193 13.961V10.4786C30.5193 10.2942 30.3759 10.1303 30.1711 10.1303H26.279C26.0946 10.1303 25.9308 10.2737 25.9308 10.4786V13.961C25.9513 14.1658 26.0946 14.3092 26.279 14.3092Z" fill="#0091E2"/>
</g>
</svg>
