<svg width="121" height="30" viewBox="0 0 121 30" fill="none" xmlns="http://www.w3.org/2000/svg">
<g clip-path="url(#clip0_528_156)">
<path d="M15.6338 0.28125C7.37562 0.28125 0.679077 7.02887 0.679077 15.3527C0.679077 22.0118 4.96406 27.6612 10.9061 29.6541C11.6534 29.7936 11.9279 29.3272 11.9279 28.9291C11.9279 28.5697 11.9139 27.3824 11.9076 26.123C7.74707 27.0347 6.86917 24.3448 6.86917 24.3448C6.1889 22.6027 5.20873 22.1396 5.20873 22.1396C3.85194 21.2041 5.311 21.2233 5.311 21.2233C6.81275 21.3297 7.60351 22.7765 7.60351 22.7765C8.9373 25.0806 11.102 24.4144 11.9553 24.0294C12.0895 23.0552 12.4772 22.3904 12.9048 22.0141C9.58321 21.6329 6.09132 20.3405 6.09132 14.5656C6.09132 12.9202 6.67553 11.5757 7.63224 10.5202C7.47695 10.1406 6.96511 8.60771 7.77709 6.53171C7.77709 6.53171 9.03289 6.12663 11.8907 8.07662C13.0835 7.74258 14.3629 7.5752 15.6338 7.56953C16.9048 7.5752 18.1851 7.74258 19.3802 8.07662C22.2347 6.12663 23.4887 6.53171 23.4887 6.53171C24.3027 8.60771 23.7906 10.1406 23.6353 10.5202C24.5941 11.5757 25.1744 12.9201 25.1744 14.5656C25.1744 20.3543 21.6759 21.629 18.3459 22.002C18.8822 22.4697 19.3602 23.387 19.3602 24.793C19.3602 26.8096 19.3428 28.4326 19.3428 28.9291C19.3428 29.3301 19.612 29.8001 20.3702 29.6521C26.3089 27.657 30.5885 22.0096 30.5885 15.3527C30.5885 7.02887 23.8929 0.28125 15.6338 0.28125Z" fill="#DFDFDF"/>
<path d="M6.28024 21.7517C6.2474 21.8265 6.13035 21.8489 6.02397 21.7976C5.91548 21.7485 5.85449 21.6463 5.88968 21.5712C5.92193 21.4941 6.03898 21.4726 6.14724 21.5244C6.25596 21.5734 6.31789 21.6765 6.28024 21.7517ZM7.01587 22.4131C6.94456 22.4798 6.80511 22.4488 6.71045 22.3435C6.61264 22.2384 6.59434 22.098 6.66671 22.0303C6.74025 21.9637 6.87548 21.9948 6.97353 22.1C7.07135 22.2063 7.09035 22.3459 7.01575 22.4132M7.52056 23.2595C7.42884 23.3236 7.27895 23.2635 7.18641 23.1294C7.09481 22.9955 7.09481 22.8348 7.1884 22.7703C7.28129 22.7059 7.42884 22.7638 7.52267 22.8968C7.61416 23.0331 7.61416 23.1939 7.52044 23.2596M8.37395 24.2397C8.29196 24.3307 8.11744 24.3064 7.98959 24.182C7.85893 24.0605 7.82246 23.8881 7.90468 23.7969C7.9876 23.7057 8.16318 23.7313 8.29196 23.8546C8.4218 23.9759 8.46132 24.1497 8.37395 24.2397ZM9.47692 24.5707C9.44091 24.6887 9.27272 24.7423 9.10336 24.6922C8.93423 24.6405 8.82351 24.5023 8.85764 24.383C8.89283 24.2642 9.06172 24.2083 9.23237 24.2619C9.40127 24.3134 9.5121 24.4506 9.47692 24.5707ZM10.7324 24.711C10.7366 24.8353 10.5929 24.9384 10.4151 24.9407C10.2362 24.9446 10.0916 24.844 10.0897 24.7218C10.0897 24.5962 10.2301 24.4941 10.4089 24.4911C10.5867 24.4876 10.7324 24.5875 10.7324 24.711ZM11.9655 24.6634C11.9869 24.7846 11.8633 24.9092 11.6867 24.9423C11.5131 24.9742 11.3525 24.8994 11.3303 24.7792C11.3087 24.6548 11.4347 24.5304 11.6079 24.4981C11.7848 24.4671 11.943 24.5401 11.9655 24.6634Z" fill="#DFDFDF"/>
</g>
<g clip-path="url(#clip1_528_156)">
<path d="M55.6632 13.4289H48.8863C48.8023 13.429 48.7217 13.4624 48.6624 13.5218C48.603 13.5813 48.5696 13.6619 48.5695 13.746V17.063C48.5696 17.1471 48.603 17.2278 48.6623 17.2873C48.7217 17.3468 48.8022 17.3803 48.8863 17.3805H51.53V21.5014C51.53 21.5014 50.9363 21.7042 49.2952 21.7042C47.359 21.7042 44.6541 20.9957 44.6541 15.0416C44.6541 9.08628 47.4706 8.30255 50.1148 8.30255C52.4037 8.30255 53.3898 8.70619 54.0171 8.90035C54.2143 8.96087 54.3967 8.76452 54.3967 8.58918L55.1527 5.38449C55.1527 5.30262 55.125 5.20377 55.0316 5.13669C54.7768 4.9548 53.2223 4.08398 49.2952 4.08398C44.771 4.08398 40.1303 6.01104 40.1303 15.2738C40.1303 24.5372 45.4436 25.9173 49.9209 25.9173C53.628 25.9173 55.8769 24.3314 55.8769 24.3314C55.9696 24.2799 55.9797 24.1503 55.9797 24.0908V13.7458C55.9797 13.571 55.838 13.4289 55.6632 13.4289ZM90.5887 5.19385C90.5891 5.15222 90.5812 5.11093 90.5656 5.07235C90.5499 5.03377 90.5269 4.99867 90.4976 4.96905C90.4684 4.93943 90.4336 4.91589 90.3953 4.89977C90.3569 4.88365 90.3158 4.87527 90.2742 4.87511H86.4582C86.4165 4.87527 86.3753 4.88364 86.3369 4.89974C86.2985 4.91584 86.2636 4.93936 86.2342 4.96896C86.2049 4.99855 86.1816 5.03365 86.1658 5.07224C86.1501 5.11082 86.142 5.15215 86.1422 5.19385L86.1432 12.5761H80.1953V5.19385C80.1956 5.1522 80.1877 5.1109 80.172 5.07232C80.1564 5.03374 80.1332 4.99864 80.104 4.96903C80.0747 4.93941 80.0399 4.91587 80.0016 4.89976C79.9632 4.88364 79.922 4.87527 79.8804 4.87511H76.0648C75.9808 4.87556 75.9004 4.90938 75.8413 4.96915C75.7822 5.02892 75.7492 5.10975 75.7496 5.19385V25.1829C75.7496 25.359 75.8911 25.5024 76.0648 25.5024H79.8804C80.0549 25.5024 80.1953 25.3589 80.1953 25.1829V16.6328H86.1432L86.1327 25.1829C86.1327 25.359 86.2745 25.5024 86.449 25.5024H90.2739C90.4487 25.5024 90.5884 25.3589 90.5887 25.1829V5.19385ZM62.8638 7.81705C62.8638 6.4414 61.7622 5.32985 60.4031 5.32985C59.0454 5.32985 57.943 6.4414 57.943 7.81705C57.943 9.19102 59.0454 10.3054 60.4031 10.3054C61.7622 10.3054 62.8638 9.19102 62.8638 7.81705ZM62.5909 20.9663V11.7394C62.5911 11.6553 62.558 11.5745 62.4988 11.5148C62.4396 11.4551 62.3592 11.4213 62.2752 11.4208H58.4714C58.297 11.4208 58.1408 11.601 58.1408 11.7764V24.9956C58.1408 25.3843 58.3826 25.4996 58.6956 25.4996H62.1227C62.4987 25.4996 62.5909 25.3147 62.5909 24.9895V20.9663ZM105.09 11.4509H101.304C101.13 11.4509 100.989 11.5942 100.989 11.7705V21.5717C100.989 21.5717 100.027 22.2764 98.6614 22.2764C97.2961 22.2764 96.9339 21.6562 96.9339 20.3179V11.7705C96.9339 11.5942 96.7927 11.4509 96.619 11.4509H92.7758C92.6025 11.4509 92.4603 11.5942 92.4603 11.7705V20.965C92.4603 24.9401 94.6734 25.9126 97.7181 25.9126C100.216 25.9126 102.229 24.5314 102.229 24.5314C102.229 24.5314 102.325 25.2592 102.369 25.3456C102.412 25.4317 102.525 25.5186 102.647 25.5186L105.092 25.5078C105.265 25.5078 105.408 25.3643 105.408 25.1888L105.406 11.7707C105.406 11.5942 105.265 11.4509 105.09 11.4509ZM113.946 22.2643C112.633 22.2243 111.742 21.6275 111.742 21.6275V15.2976C111.742 15.2976 112.621 14.7583 113.699 14.6618C115.062 14.5396 116.376 14.952 116.376 18.2081C116.376 21.642 115.784 22.3196 113.946 22.2643ZM115.44 11.0021C113.289 11.0021 111.826 11.9627 111.826 11.9627V5.19402C111.826 5.0175 111.685 4.87511 111.511 4.87511H107.685C107.643 4.87531 107.602 4.88372 107.563 4.89986C107.525 4.91599 107.49 4.93954 107.461 4.96916C107.432 4.99877 107.409 5.03387 107.393 5.07245C107.377 5.11104 107.369 5.15235 107.369 5.19402V25.1829C107.369 25.359 107.511 25.5024 107.685 25.5024H110.34C110.46 25.5024 110.55 25.4408 110.617 25.3328C110.683 25.2254 110.778 24.4112 110.778 24.4112C110.778 24.4112 112.343 25.8957 115.305 25.8957C118.783 25.8957 120.777 24.1298 120.777 17.9686C120.777 11.8072 117.592 11.0021 115.44 11.0021ZM73.5578 11.4192H70.6954L70.6911 7.63347C70.6911 7.49024 70.6173 7.41863 70.4519 7.41863H66.5513C66.3997 7.41863 66.3182 7.48553 66.3182 7.63128V11.5434C66.3182 11.5434 64.3635 12.0156 64.2314 12.0539C64.1655 12.0731 64.1075 12.1131 64.0663 12.1681C64.0251 12.223 64.0028 12.2898 64.0028 12.3586V14.8168C64.0028 14.9937 64.1439 15.1359 64.3184 15.1359H66.3182V21.0497C66.3182 25.4424 69.396 25.874 71.4729 25.874C72.4219 25.874 73.5571 25.569 73.7445 25.4994C73.8579 25.4577 73.9237 25.3402 73.9237 25.2128L73.9269 22.5086C73.9269 22.3321 73.7781 22.1897 73.6105 22.1897C73.4437 22.1897 73.017 22.2576 72.5777 22.2576C71.1719 22.2576 70.6954 21.6031 70.6954 20.756L70.6953 15.1357H73.5578C73.7323 15.1357 73.8735 14.9934 73.8735 14.8167V11.7374C73.8737 11.6957 73.8657 11.6544 73.8499 11.6159C73.8341 11.5773 73.8109 11.5423 73.7816 11.5127C73.7523 11.4831 73.7174 11.4597 73.679 11.4436C73.6406 11.4275 73.5994 11.4192 73.5578 11.4192Z" fill="#DFDFDF"/>
</g>
<defs>
<clipPath id="clip0_528_156">
<rect width="30.0256" height="29.4369" fill="white" transform="translate(0.679077 0.28125)"/>
</clipPath>
<clipPath id="clip1_528_156">
<rect width="80.6571" height="21.8334" fill="white" transform="translate(40.1246 4.08398)"/>
</clipPath>
</defs>
</svg>
