<svg version="1.2" baseProfile="tiny-ps" xmlns="http://www.w3.org/2000/svg" viewBox="0 0 1583 487" width="1583" height="487">
	<title>slp-logo-svg</title>
	<defs>
		<clipPath clipPathUnits="userSpaceOnUse" id="cp1">
			<path d="M-192.68 -192.8L1775.65 -192.8L1775.65 680.8L-192.68 680.8L-192.68 -192.8Z" />
		</clipPath>
	</defs>
	<style>
		tspan { white-space:pre }
		.shp0 { fill: #8c929d } 
		.shp1 { fill: #e24329 } 
		.shp2 { fill: #fca326 } 
		.shp3 { fill: #fc6d26 } 
	</style>
	<g id="Clip-Path" clip-path="url(#cp1)">
		<g id="Layer">
			<path id="Layer" class="shp0" d="M1112.86 116.93L1078.96 116.93L1079.12 370.88L1216.4 370.88L1216.4 339.47L1113.01 339.47L1112.86 116.93Z" />
			<path id="Layer" fill-rule="evenodd" class="shp0" d="M1380.32 240.99L1380.32 371.02L1356.38 371.02L1350.16 346.17C1342.08 364.45 1318.6 375.71 1294.19 375.71C1257.96 375.71 1234.02 356.01 1234.02 316.79C1234.02 273.03 1264.18 252.09 1323.57 252.09C1330.41 252.09 1341.61 252.87 1347.05 253.96L1347.05 241.62C1347.05 217.55 1334.77 203.17 1306.94 203.17C1282.53 203.17 1265.58 211.3 1251.74 219.43L1239.77 198.49C1259.36 182.08 1284.55 172.39 1311.91 172.39C1362.44 172.39 1380.17 199.89 1380.32 240.99ZM1347.21 326.32L1347.21 279.28C1341.45 278.19 1330.26 277.41 1323.26 277.41C1286.26 277.41 1268.85 289.44 1268.85 314.6C1268.85 331.32 1279.26 344.14 1305.07 344.14C1324.35 344.14 1338.5 335.23 1347.05 326.32L1347.21 326.32Z" />
			<path id="Layer" fill-rule="evenodd" class="shp0" d="M1582.03 264.66C1582.03 334.83 1551.56 375.46 1488.28 375.46C1463.56 375.46 1440.86 371.71 1424.23 364.68L1424.07 116.98L1457.19 116.98L1457.34 160.42L1457.34 193.24C1457.34 193.24 1473.67 172.45 1503.99 172.45C1553.74 172.45 1581.88 209.18 1582.03 264.66ZM1546.74 266.69C1546.74 229.03 1534.15 205.74 1501.34 205.74C1483.16 205.74 1468.85 212.77 1457.34 222.46L1457.34 339.83C1465.74 343.73 1476.93 345.3 1489.69 345.3C1526.37 345.3 1546.74 320.14 1546.74 266.69Z" />
			<path id="Layer" class="shp0" d="M743.82 144.48C773.83 144.48 793.26 154.49 805.86 164.64L820.47 139.17C800.73 121.67 773.98 112.29 745.38 112.29C673.23 112.29 622.7 156.52 622.7 245.75C622.7 339.21 677.28 375.62 739.62 375.62C770.87 375.62 797.46 368.28 814.87 360.93L814.1 261.07L814.1 249.35L814.1 229.66L721.59 229.66L721.59 261.07L780.67 261.07L781.45 336.86C773.67 340.77 760.3 343.9 742.11 343.9C692.05 343.9 658.46 312.17 658.46 245.44C658.31 177.46 692.98 144.48 743.82 144.48Z" />
			<path id="Layer" class="shp0" d="M982.52 116.9L949.4 116.9L949.56 159.56L949.56 177.06L949.56 187.22L949.56 205.04L949.56 306.62L949.56 306.93C949.56 348.03 967.28 375.54 1017.81 375.54C1024.81 375.54 1031.65 374.91 1038.18 373.66L1038.18 343.81C1033.36 344.6 1028.23 344.91 1022.79 344.91C994.96 344.91 982.67 330.53 982.67 306.46L982.67 204.88L1038.18 204.88L1038.18 177.06L982.67 177.06L982.52 116.9Z" />
			<path id="Layer" class="shp0" d="M865.18 370.89L898.3 370.89L898.3 177.1L865.18 177.1L865.18 370.89Z" />
			<path id="Layer" class="shp0" d="M865.18 150.37L898.3 150.37L898.3 117.09L865.18 117.09L865.18 150.37Z" />
			<path id="Layer" class="shp1" d="M262.52 486.85L359.22 187.85L165.95 187.85L262.52 486.85Z" />
			<path id="Layer" class="shp2" d="M30.5 187.85L1.06 278.69C-1.61 286.94 1.27 296.04 8.3 301.18L262.52 486.84L30.5 187.85Z" />
			<path id="Layer" class="shp1" d="M30.51 187.85L165.96 187.85L107.66 7.78C104.68 -1.44 91.68 -1.44 88.59 7.78L30.51 187.85Z" />
			<path id="Layer" class="shp2" d="M494.68 187.85L524.02 278.69C526.69 286.94 523.81 296.04 516.78 301.18L262.53 486.85L494.68 187.85Z" />
			<path id="Layer" class="shp1" d="M494.68 187.85L359.23 187.85L417.42 7.78C420.4 -1.44 433.4 -1.44 436.49 7.78L494.68 187.85Z" />
			<path id="Layer" class="shp3" d="M262.53 486.85L359.23 187.85L494.68 187.85L262.53 486.85Z" />
			<path id="Layer" class="shp3" d="M262.52 486.85L30.51 187.85L165.96 187.85L262.52 486.85Z" />
		</g>
	</g>
</svg>