<svg xmlns="http://www.w3.org/2000/svg" width="28" height="28" viewBox="0 0 28 28" fill="none">
  <g clip-path="url(#clip0_543_55)">
    <path d="M23.3333 20.9993C23.6307 20.9997 23.9167 21.1135 24.1329 21.3177C24.3492 21.5218 24.4793 21.8008 24.4967 22.0976C24.5141 22.3945 24.4175 22.6868 24.2267 22.9148C24.0358 23.1428 23.7651 23.2894 23.4698 23.3245L23.3333 23.3327H4.66667C4.36931 23.3324 4.0833 23.2185 3.86707 23.0144C3.65084 22.8102 3.52073 22.5312 3.5033 22.2344C3.48587 21.9375 3.58245 21.6452 3.77331 21.4172C3.96416 21.1892 4.23489 21.0426 4.53017 21.0075L4.66667 20.9993H23.3333ZM23.3333 12.8327C23.6428 12.8327 23.9395 12.9556 24.1583 13.1744C24.3771 13.3932 24.5 13.6899 24.5 13.9993C24.5 14.3088 24.3771 14.6055 24.1583 14.8243C23.9395 15.0431 23.6428 15.166 23.3333 15.166H4.66667C4.35725 15.166 4.0605 15.0431 3.84171 14.8243C3.62292 14.6055 3.5 14.3088 3.5 13.9993C3.5 13.6899 3.62292 13.3932 3.84171 13.1744C4.0605 12.9556 4.35725 12.8327 4.66667 12.8327H23.3333ZM23.3333 4.66602C23.6428 4.66602 23.9395 4.78893 24.1583 5.00772C24.3771 5.22652 24.5 5.52326 24.5 5.83268C24.5 6.1421 24.3771 6.43885 24.1583 6.65764C23.9395 6.87643 23.6428 6.99935 23.3333 6.99935H4.66667C4.35725 6.99935 4.0605 6.87643 3.84171 6.65764C3.62292 6.43885 3.5 6.1421 3.5 5.83268C3.5 5.52326 3.62292 5.22652 3.84171 5.00772C4.0605 4.78893 4.35725 4.66602 4.66667 4.66602H23.3333Z" fill="white"/>
  </g>
  <defs>
    <clipPath id="clip0_543_55">
      <rect width="28" height="28" fill="white"/>
    </clipPath>
  </defs>
</svg>