<svg width="133" height="24" viewBox="0 0 133 24" fill="none" xmlns="http://www.w3.org/2000/svg">
<g id="Group 1">
<g id="Group">
<path id="Vector" d="M43.4121 18.5025C42.5304 18.1722 41.8227 17.6974 41.289 17.0752C40.7553 16.453 40.4545 15.6952 40.3926 14.7988L43.5301 14.4213C43.592 14.8459 43.7542 15.2145 44.0137 15.5301C44.2732 15.8456 44.6241 16.0962 45.0635 16.285C45.5028 16.4737 46.0071 16.568 46.5732 16.568C47.0303 16.568 47.4431 16.5061 47.8117 16.3793C48.1803 16.2525 48.4752 16.0844 48.6964 15.8721C48.9175 15.6598 49.0266 15.421 49.0266 15.1526C49.0414 14.8224 48.8526 14.5422 48.4604 14.3152C48.0683 14.0881 47.4461 13.9112 46.5968 13.7844L44.7332 13.4777C43.4121 13.2565 42.4449 12.8761 41.8316 12.3336C41.2182 11.791 40.9204 11.0155 40.9352 10.0099C40.9352 9.22258 41.1563 8.53256 41.5957 7.93396C42.0351 7.33535 42.6454 6.87534 43.4239 6.55392C44.2024 6.2325 45.0959 6.07031 46.1014 6.07031C47.107 6.07031 47.9297 6.2207 48.7081 6.51853C49.4866 6.81636 50.1206 7.23804 50.6072 7.78062C51.0937 8.3232 51.3856 8.9395 51.48 9.63247L48.4369 10.1043C48.4044 9.61772 48.1626 9.21668 47.7056 8.90116C47.2485 8.58564 46.6823 8.42935 46.0071 8.42935C45.6296 8.42935 45.2905 8.49128 44.9927 8.61808C44.6949 8.74488 44.4589 8.90116 44.285 9.08989C44.111 9.27861 44.0166 9.49092 44.0019 9.72683C44.0019 10.0099 44.1582 10.2458 44.4737 10.4345C44.7892 10.6233 45.3082 10.7884 46.0307 10.9299L47.8707 11.213C49.4129 11.4961 50.5246 11.9325 51.2087 12.5223C51.8928 13.1121 52.2349 13.8935 52.2349 14.8695C52.2349 15.6864 51.9901 16.4118 51.5036 17.0399C51.017 17.668 50.327 18.1516 49.4394 18.4907C48.5519 18.8298 47.5316 18.9979 46.3845 18.9979C45.2374 18.9979 44.2938 18.8327 43.4121 18.5025Z" fill="white"/>
<path id="Vector_2" d="M58.8876 18.313C58.1946 17.8883 57.6137 17.2661 57.1419 16.4493H57.1183L56.5993 18.5725H53.627V1.06836H57.1655V8.5937H57.1891C57.6285 7.79163 58.2064 7.17828 58.923 6.75365C59.6395 6.32902 60.4357 6.11671 61.3174 6.11671C62.3701 6.11671 63.3078 6.388 64.1246 6.93058C64.9414 7.47316 65.5843 8.2251 66.0472 9.18346C66.5102 10.1418 66.7431 11.2594 66.7431 12.5333C66.7431 13.8072 66.5102 14.9041 66.0472 15.8713C65.5843 16.8386 64.9414 17.5934 64.1246 18.136C63.3078 18.6786 62.3642 18.9499 61.2938 18.9499C60.3826 18.9499 59.5805 18.7376 58.8876 18.313ZM61.7184 15.4939C62.1902 15.1872 62.5559 14.7773 62.8154 14.2672C63.0749 13.7571 63.2046 13.1791 63.2046 12.5333C63.2046 11.8875 63.0749 11.3154 62.8154 10.8112C62.5559 10.307 62.1902 9.90297 61.7184 9.5963C61.2466 9.28962 60.7188 9.13628 60.1379 9.13628C59.557 9.13628 59.0262 9.28962 58.5455 9.5963C58.0649 9.90297 57.6933 10.307 57.425 10.8112C57.1566 11.3154 57.024 11.8875 57.024 12.5333C57.024 13.1791 57.1566 13.7571 57.425 14.2672C57.6933 14.7773 58.0649 15.1872 58.5455 15.4939C59.0262 15.8006 59.557 15.9539 60.1379 15.9539C60.7188 15.9539 61.2466 15.8006 61.7184 15.4939Z" fill="white"/>
<path id="Vector_3" d="M71.048 18.2315C70.0484 17.6889 69.267 16.9311 68.7008 15.955C68.1346 14.979 67.8516 13.8407 67.8516 12.5344C67.8516 11.2281 68.1346 10.0839 68.7008 9.10199C69.267 8.12004 70.0484 7.35924 71.048 6.82551C72.0477 6.29178 73.2213 6.02344 74.5748 6.02344C75.9283 6.02344 77.0665 6.29178 78.0897 6.82551C79.113 7.35924 79.8944 8.12004 80.437 9.10199C80.9795 10.0839 81.2508 11.2281 81.2508 12.5344C81.2508 13.8407 80.9795 14.979 80.437 15.955C79.8944 16.9311 79.113 17.6889 78.0897 18.2315C77.0665 18.7741 75.8958 19.0453 74.5748 19.0453C73.2537 19.0453 72.0477 18.7741 71.048 18.2315ZM76.2615 15.6601C76.7392 15.3682 77.1107 14.9554 77.3702 14.4216C77.6297 13.8879 77.7595 13.2568 77.7595 12.5344C77.7595 11.8119 77.6297 11.1868 77.3702 10.659C77.1107 10.1311 76.7421 9.72418 76.2615 9.43225C75.7808 9.14032 75.2176 8.99583 74.5748 8.99583C73.9319 8.99583 73.3628 9.14032 72.8763 9.43225C72.3897 9.72418 72.0123 10.1311 71.744 10.659C71.4756 11.1868 71.3429 11.8119 71.3429 12.5344C71.3429 13.2568 71.4756 13.8879 71.744 14.4216C72.0123 14.9554 72.3897 15.3682 72.8763 15.6601C73.3628 15.9521 73.929 16.0965 74.5748 16.0965C75.2206 16.0965 75.7808 15.9521 76.2615 15.6601Z" fill="white"/>
<path id="Vector_4" d="M82.7607 6.49463H85.6152L86.1813 8.547H86.2049C86.5352 7.80685 87.063 7.21709 87.7855 6.77772C88.5079 6.33835 89.3336 6.11719 90.2624 6.11719C91.1913 6.11719 91.9698 6.33245 92.5979 6.76592C93.226 7.1994 93.6683 7.82454 93.9189 8.64136H93.9425C94.4468 7.80685 95.0719 7.17876 95.818 6.75413C96.564 6.3295 97.3956 6.11719 98.3067 6.11719C99.1088 6.11719 99.7959 6.29412 100.371 6.64797C100.946 7.00183 101.382 7.50607 101.68 8.15776C101.978 8.80944 102.128 9.59383 102.128 10.505L102.152 18.5729H98.5898V11.2127C98.5898 10.5522 98.4217 10.042 98.0826 9.67934C97.7435 9.31664 97.254 9.13676 96.6082 9.13676C96.1364 9.13676 95.7206 9.25766 95.3579 9.50241C94.9952 9.74716 94.721 10.0774 94.5323 10.4932C94.3436 10.909 94.2492 11.4014 94.2492 11.9676L94.2256 18.5729H90.6871V11.2127C90.6871 10.5522 90.5131 10.042 90.1681 9.67934C89.8231 9.31664 89.3336 9.13676 88.7055 9.13676C87.9653 9.13676 87.3815 9.39626 86.948 9.91525C86.5145 10.4342 86.2993 11.1184 86.2993 11.9676V18.5729H82.7607V6.49463Z" fill="white"/>
<path id="Vector_5" d="M104.378 4.24176C103.977 3.85547 103.777 3.35712 103.777 2.74377C103.777 2.33389 103.868 1.97708 104.048 1.67041C104.228 1.36373 104.475 1.12488 104.791 0.950901C105.107 0.776922 105.475 0.691406 105.9 0.691406C106.546 0.691406 107.059 0.877181 107.445 1.24578C107.831 1.61438 108.023 2.11568 108.023 2.74377C108.023 3.1684 107.931 3.53405 107.752 3.84073C107.572 4.1474 107.321 4.38626 107.008 4.56024C106.693 4.73421 106.324 4.81973 105.9 4.81973C105.286 4.81973 104.779 4.62806 104.378 4.24176ZM104.107 6.49465H107.669V18.5729H104.107V6.49465Z" fill="white"/>
<path id="Vector_6" d="M111.16 9.18457H108.872V6.49526H111.16V5.07984C111.16 4.19814 111.358 3.41376 111.75 2.72079C112.142 2.02783 112.691 1.50294 113.39 1.14024C114.088 0.777533 114.902 0.597656 115.831 0.597656C116.76 0.597656 117.621 0.807021 118.367 1.2228C119.113 1.63858 119.7 2.18706 120.125 2.86234L118.78 4.96188C118.544 4.52251 118.223 4.16276 117.813 3.88852C117.403 3.61428 116.964 3.47569 116.492 3.47569C115.958 3.47569 115.525 3.65262 115.194 4.00647C114.864 4.36033 114.699 4.82919 114.699 5.4101V6.49526H119.157V9.18457H114.699L114.722 18.5736H111.184L111.16 9.18457Z" fill="white"/>
<path id="Vector_7" d="M122.77 23.7171C121.997 23.5284 121.304 23.26 120.682 22.915C120.06 22.57 119.562 22.1513 119.184 21.6647L120.67 19.1641C121.001 19.5563 121.387 19.8955 121.826 20.1785C122.266 20.4616 122.755 20.6739 123.289 20.8155C123.823 20.957 124.365 21.0278 124.917 21.0278C125.704 21.0278 126.379 20.898 126.945 20.6385C127.511 20.3791 127.948 19.9987 128.255 19.4944C128.561 18.9902 128.715 18.4004 128.715 17.7251V16.8287H128.691C128.299 17.5364 127.762 18.0937 127.087 18.5036C126.412 18.9135 125.68 19.117 124.893 19.117C123.997 19.117 123.206 18.9194 122.522 18.5272C121.838 18.135 121.31 17.5718 120.942 16.8405C120.573 16.1092 120.387 15.2629 120.387 14.3045V6.49609H123.949V13.7384C123.949 14.2102 124.035 14.6377 124.209 15.024C124.383 15.4103 124.636 15.7052 124.975 15.9087C125.315 16.1121 125.704 16.2153 126.143 16.2153C126.583 16.2153 127.025 16.0974 127.417 15.8615C127.809 15.6256 128.119 15.316 128.349 14.9297C128.576 14.5434 128.691 14.0834 128.691 13.5496V6.49609H132.253V17.8195C132.253 19.0934 131.961 20.1874 131.38 21.0986C130.799 22.0097 129.98 22.7234 128.927 23.2335C127.874 23.7436 126.63 24.0002 125.2 24.0002C124.35 24.0002 123.539 23.9058 122.77 23.7171Z" fill="white"/>
</g>
<path id="Vector_8" d="M1.16477 0.000219807C-0.345008 -0.0204218 -0.347956 2.35336 1.16477 2.33272H9.13533C10.651 2.35926 10.654 -0.0263194 9.13533 0.000219807H1.16477ZM12.9216 0.000219807C11.4177 -0.0204218 11.4088 2.35336 12.9216 2.33272H31.8616C32.5044 2.33272 33.0234 1.81078 33.0234 1.17089C33.0234 0.525107 32.5044 0.00316861 31.8616 0.00316861H12.9216V0.000219807ZM1.16477 4.03418C-0.342059 4.01354 -0.350905 6.39027 1.16477 6.36668H14.2367C14.8796 6.36668 15.3985 5.84475 15.3985 5.20191C15.4015 4.55907 14.8796 4.03418 14.2367 4.03418H1.16477ZM1.16477 8.07404C-0.33911 8.0534 -0.350905 10.4213 1.16477 10.4006H20.208C20.8508 10.4006 21.3698 9.87871 21.3698 9.23882C21.3698 8.59598 20.8479 8.07699 20.208 8.07699H1.16477V8.07404ZM31.8616 22.8298C33.3714 22.8505 33.3743 20.4767 31.8616 20.4973H23.891C22.3754 20.4708 22.3724 22.8564 23.891 22.8298H31.8616ZM20.1019 22.8298C21.6057 22.8505 21.6146 20.4767 20.1019 20.4973H1.16182C0.521935 20.5003 0 21.0193 0 21.6621C0 22.3079 0.518986 22.8298 1.16182 22.8298H20.1019ZM31.8616 18.7959C33.3684 18.8165 33.3773 16.4398 31.8616 16.4634H18.7896C18.1468 16.4634 17.6278 16.9853 17.6278 17.6282C17.6249 18.271 18.1468 18.7959 18.7896 18.7959H31.8616ZM31.8616 14.756C33.3655 14.7767 33.3773 12.4088 31.8616 12.4294H12.8184C12.1755 12.4294 11.6565 12.9514 11.6565 13.5912C11.6565 14.2341 12.1785 14.7531 12.8184 14.7531H31.8616V14.756Z" fill="url(#paint0_linear_528_7066)"/>
</g>
<defs>
<linearGradient id="paint0_linear_528_7066" x1="0" y1="11.415" x2="33.7847" y2="14.504" gradientUnits="userSpaceOnUse">
<stop offset="0.06" stop-color="#4059D0"/>
<stop offset="0.555" stop-color="#CC58BB"/>
<stop offset="1" stop-color="#F4B57F"/>
</linearGradient>
</defs>
</svg>
