<svg width="121" height="36" viewBox="0 0 121 36" fill="none" xmlns="http://www.w3.org/2000/svg">
<g id="python-3 1" clip-path="url(#clip0_528_147)">
<path id="Vector" d="M45.496 18.3445C45.496 14.6565 44.4456 12.7631 42.3444 12.6595C41.5082 12.62 40.6922 12.7532 39.8981 13.062C39.2643 13.2889 38.8377 13.5138 38.6133 13.741V22.5439C39.9573 23.3883 41.1507 23.7808 42.1915 23.719C44.3934 23.5729 45.496 21.7833 45.496 18.3445ZM48.0878 18.4975C48.0878 20.3711 47.6488 21.9264 46.7659 23.1631C45.7819 24.5629 44.4182 25.2837 42.6748 25.3232C41.3604 25.365 40.0063 24.9529 38.6131 24.0888V32.0896L36.359 31.2848V13.5259C36.7289 13.0718 37.2051 12.6818 37.7819 12.3508C39.1236 11.5682 40.7535 11.166 42.6723 11.1463L42.7041 11.1782C44.4577 11.1562 45.8087 11.8769 46.7583 13.3383C47.6438 14.6788 48.0878 16.3969 48.0878 18.4975ZM61.8631 23.7484C61.8631 26.2615 61.6116 28.0017 61.1087 28.9694C60.6032 29.9369 59.6412 30.7096 58.2209 31.285C57.0692 31.7391 55.8237 31.9861 54.4873 32.0281L54.1146 30.6063C55.4735 30.4214 56.4304 30.236 56.9852 30.0509C58.0777 29.6806 58.8273 29.113 59.2392 28.3525C59.5696 27.733 59.7323 26.5505 59.7323 24.8005V24.2129C58.191 24.9142 56.5758 25.2622 54.8868 25.2622C53.7769 25.2622 52.798 24.9142 51.9545 24.2129C51.0075 23.4501 50.5341 22.4826 50.5341 21.31V11.919L52.7881 11.1463V20.5983C52.7881 21.6078 53.1135 22.3856 53.7645 22.9311C54.4154 23.4767 55.259 23.7385 56.2922 23.7185C57.3255 23.6962 58.4326 23.2963 59.6089 22.5138V11.4867H61.8629L61.8631 23.7484ZM70.6618 25.1999C70.4149 25.2207 70.1673 25.2314 69.9195 25.2318C68.6446 25.2318 67.6506 24.9284 66.9407 24.3185C66.2327 23.7089 65.8778 22.8673 65.8778 21.7932V12.9062H64.334V11.4869H65.8778V7.71735L68.1293 6.91501V11.4869H70.6618V12.9062H68.1293V21.7314C68.1293 22.5783 68.356 23.1781 68.8096 23.5288C69.1992 23.8176 69.8183 23.9829 70.6616 24.025V25.1999H70.6618ZM84.3091 25.0147H82.0551V16.3055C82.0551 15.4193 81.8482 14.6565 81.4363 14.0198C80.9604 13.2988 80.2995 12.9384 79.451 12.9384C78.4177 12.9384 77.1256 13.4839 75.5744 14.575V25.0147H73.3207V4.19724L75.5744 3.48633V12.968C77.0145 11.9187 78.588 11.393 80.297 11.393C81.4907 11.393 82.4571 11.7954 83.1972 12.5977C83.9395 13.3998 84.3094 14.3997 84.3094 15.5946L84.3091 25.0147ZM96.2891 17.9892C96.2891 16.5722 96.0204 15.4021 95.4851 14.4764C94.8488 13.3484 93.86 12.7532 92.5234 12.6917C90.0523 12.8348 88.8192 14.6071 88.8192 18.0041C88.8192 19.5617 89.0757 20.8627 89.5936 21.9069C90.2545 23.2376 91.246 23.8943 92.5679 23.872C95.0486 23.852 96.2891 21.892 96.2891 17.9892ZM98.7577 18.0039C98.7577 20.0209 98.2423 21.6995 97.2139 23.0398C96.0817 24.5409 94.5186 25.2936 92.5234 25.2936C90.5457 25.2936 89.0044 24.5406 87.8922 23.0398C86.8835 21.6995 86.3802 20.0209 86.3802 18.0039C86.3802 16.1082 86.9252 14.5134 88.0154 13.2149C89.1671 11.8374 90.681 11.1463 92.553 11.1463C94.4245 11.1463 95.9486 11.8374 97.1225 13.2149C98.2127 14.5134 98.7577 16.1082 98.7577 18.0039ZM111.68 25.0147H109.426V15.8119C109.426 14.8024 109.123 14.0147 108.516 13.4469C107.909 12.8816 107.1 12.6076 106.092 12.6296C105.022 12.6494 104.003 12.9999 103.036 13.6789V25.0147H100.782V13.4001C102.079 12.4549 103.273 11.8374 104.363 11.5487C105.391 11.2797 106.299 11.1463 107.081 11.1463C107.615 11.1463 108.119 11.1979 108.592 11.3018C109.477 11.5067 110.198 11.8868 110.752 12.4448C111.371 13.062 111.68 13.8023 111.68 14.6689V25.0147Z" fill="white"/>
<path id="Vector_2" d="M14.0972 4.2815C12.9374 4.28682 11.83 4.38584 10.8557 4.55857C7.98513 5.06636 7.46394 6.1288 7.46394 8.08855V10.6767H14.2475V11.5393H4.91796C2.94656 11.5393 1.22006 12.7256 0.680145 14.9821C0.0572492 17.5687 0.0296717 19.1828 0.680145 21.8836C1.16237 23.894 2.31405 25.3264 4.28545 25.3264H6.6179V22.2239C6.6179 19.9826 8.55515 18.0056 10.8557 18.0056H17.6314C19.5176 18.0056 21.0232 16.4511 21.0232 14.5549V8.0883C21.0232 6.24809 19.4723 4.86552 17.6314 4.55831C16.4658 4.36431 15.257 4.27593 14.0972 4.2815ZM10.4286 6.36282C11.1295 6.36282 11.7015 6.94507 11.7015 7.66079C11.7015 8.37398 11.1292 8.95091 10.4286 8.95091C9.72555 8.95091 9.15578 8.37423 9.15578 7.66079C9.15578 6.94507 9.72555 6.36282 10.4286 6.36282Z" fill="url(#paint0_linear_528_147)"/>
<path id="Vector_3" d="M21.8693 11.5391V14.5544C21.8693 16.8923 19.8893 18.8599 17.6315 18.8599H10.8558C8.99972 18.8599 7.46399 20.4499 7.46399 22.3106V28.7767C7.46399 30.6171 9.06247 31.6996 10.8558 32.2274C13.003 32.8595 15.0622 32.9738 17.6315 32.2274C19.3392 31.7325 21.0232 30.7362 21.0232 28.7767V26.1888H14.2475V25.3262H24.415C26.3867 25.3262 27.1211 23.9495 27.8068 21.8834C28.5152 19.7564 28.4851 17.7106 27.8068 14.9819C27.3195 13.0174 26.3889 11.5391 24.415 11.5391H21.8693ZM18.0583 27.9141C18.7614 27.9141 19.3311 28.4907 19.3311 29.2042C19.3311 29.9199 18.7614 30.5022 18.0583 30.5022C17.3575 30.5022 16.7854 29.9199 16.7854 29.2042C16.7854 28.491 17.3577 27.9141 18.0583 27.9141Z" fill="url(#paint1_linear_528_147)"/>
<path id="Vector_4" d="M116.069 9.476H116.464V6.99503H117.4V6.69922H115.133V6.99503H116.069L116.069 9.476ZM117.751 9.476H118.088V7.21005L118.821 9.47575H119.197L119.96 7.21765V9.476H120.329V6.69947H119.841L119.007 9.07838L118.295 6.69947H117.751V9.476Z" fill="white"/>
</g>
<defs>
<linearGradient id="paint0_linear_528_147" x1="-0.466469" y1="5.08966" x2="15.1898" y2="18.4156" gradientUnits="userSpaceOnUse">
<stop stop-color="#5A9FD4"/>
<stop offset="1" stop-color="#306998"/>
</linearGradient>
<linearGradient id="paint1_linear_528_147" x1="21.046" y1="26.7487" x2="15.4261" y2="18.8824" gradientUnits="userSpaceOnUse">
<stop stop-color="#FFD43B"/>
<stop offset="1" stop-color="#FFE873"/>
</linearGradient>
<clipPath id="clip0_528_147">
<rect width="120.127" height="34.9205" fill="white" transform="translate(0.202606 0.539062)"/>
</clipPath>
</defs>
</svg>
