<svg width="2612" height="600" viewBox="0 0 2612 600" fill="none" xmlns="http://www.w3.org/2000/svg">
<g clip-path="url(#clip0_143_15)">
<path fill-rule="evenodd" clip-rule="evenodd" d="M96.2515 403.393L17.0012 357.612C11.9915 354.734 7.67454 350.524 4.58341 345.195C1.43898 339.812 0 333.949 0 328.193V233.434C0 214.408 4.79659 195.168 14.976 177.58C25.1554 159.94 39.4386 146.189 55.8536 136.703L283.851 4.95648C289.501 1.70545 295.949 0 302.505 0C309.06 0 315.242 1.59886 321.105 4.95648L434.304 70.35C428.442 66.9924 422.046 65.3402 415.704 65.3402C409.362 65.3402 402.754 67.099 397.051 70.35L169.053 202.043C152.638 211.53 138.355 225.333 128.175 242.921C117.996 260.561 113.199 279.801 113.199 298.774V393.533C113.199 397.424 111.174 401.261 107.55 403.34C103.926 405.418 99.6091 405.312 96.2515 403.34V403.393ZM424.551 87.1913C421.833 85.5925 418.795 84.793 415.651 84.793C412.507 84.793 409.415 85.5925 406.697 87.1913L320.199 137.129L416.45 192.716C419.808 194.688 424.125 194.795 427.749 192.716C431.373 190.638 433.398 186.801 433.398 182.91V102.594C433.398 96.2516 429.988 90.3358 424.498 87.138L424.551 87.1913ZM354.148 221.443L417.303 257.95C422.046 260.721 426.204 264.665 429.135 269.781C432.066 274.898 433.452 280.441 433.452 285.983V370.457C433.452 386.658 429.188 402.594 421.087 416.61C412.986 430.627 401.368 442.299 387.351 450.4L159.353 582.093C156.635 583.638 153.544 584.491 150.4 584.491C147.255 584.491 144.271 583.692 141.499 582.093C136.01 578.948 132.599 573.033 132.599 566.69V485.468C132.599 479.979 131.213 474.383 128.282 469.266L274.098 385.06C288.115 376.959 299.787 365.287 307.888 351.27C310.766 346.314 313.111 341.091 315.029 335.761C318.493 325.955 320.252 315.562 320.252 305.17V221.602C320.252 217.712 322.277 213.875 325.902 211.796C329.526 209.718 333.843 209.824 337.2 211.796L354.095 221.549L354.148 221.443ZM113.253 496.607V566.637C113.253 579.481 119.915 591.952 131.8 598.828L18.6001 533.434C6.66193 526.559 0 514.034 0 501.19V432.119C0 428.229 2.02523 424.392 5.64931 422.313C9.2734 420.235 13.5903 420.341 16.9479 422.313L96.9977 468.573C101.741 471.345 105.898 475.289 108.829 480.405C111.761 485.521 113.146 491.064 113.146 496.607H113.253Z" fill="url(#paint0_linear_143_15)"/>
<path d="M611.192 368.218L672.109 369.284C675.36 413.466 710.375 443.152 763.19 443.152C807.905 443.152 840.256 423.219 840.256 387.085C840.256 347.22 800.924 338.586 741.073 327.82C678.557 317.055 619.24 297.122 619.24 222.189C619.24 156.955 674.24 111.174 753.437 111.174C832.634 111.174 892.485 160.206 895.736 228.158H834.819C830.503 189.892 798.685 163.457 753.437 163.457C710.854 163.457 681.222 182.324 681.222 217.872C681.222 256.671 720.021 264.772 779.339 275.004C841.854 286.303 902.771 306.289 902.238 380.636C902.238 447.468 844.04 495.434 762.658 495.434C671.576 495.434 612.844 442.619 611.192 368.218Z" fill="#000212"/>
<path d="M1190.3 393C1179.53 456.049 1133.7 495.381 1063.08 495.381C980.103 495.381 925.635 438.781 925.635 353.615C925.635 268.449 980.636 212.969 1064.68 212.969C1134.23 212.969 1179.48 252.301 1190.25 314.283H1130.4C1122.83 282.999 1098.05 262.533 1063.03 262.533C1016.13 262.533 985.432 299.733 985.432 353.615C985.432 407.497 1016.13 445.763 1063.03 445.763C1099.16 445.763 1123.95 425.298 1130.93 392.947H1190.19L1190.3 393Z" fill="#000212"/>
<path d="M1361.59 216.22H1374.54V270.634H1348.69C1296.94 270.634 1280.26 311.032 1280.26 353.615V492.13H1222.06V216.166H1273.81L1280.26 257.683C1294.28 234.5 1316.4 216.166 1361.64 216.166L1361.59 216.22Z" fill="#000212"/>
<path d="M1373.1 354.734C1373.1 269.035 1427.52 212.969 1507.3 212.969C1587.08 212.969 1642.03 263.652 1643.68 344.502C1643.68 351.483 1643.15 359.051 1642.09 366.619H1434.02V369.87C1436.74 417.303 1465.3 448.001 1511.09 448.001C1546.63 448.001 1572.53 430.201 1580.64 399.503H1638.83C1629.13 453.917 1583.3 495.434 1515.4 495.434C1428.1 495.434 1373.1 439.367 1373.1 354.788V354.734ZM1436.15 324.036H1584.37C1579.52 283.052 1549.88 259.922 1509.43 259.922C1472.23 259.922 1440.47 284.704 1436.15 324.036Z" fill="#000212"/>
<path d="M1665.54 354.734C1665.54 269.035 1719.95 212.969 1799.73 212.969C1879.52 212.969 1934.46 263.652 1936.12 344.502C1936.12 351.483 1935.58 359.051 1934.52 366.619H1726.45V369.87C1729.17 417.303 1757.74 448.001 1803.52 448.001C1839.07 448.001 1864.97 430.201 1873.07 399.503H1931.27C1921.57 453.917 1875.73 495.434 1807.83 495.434C1720.54 495.434 1665.54 439.367 1665.54 354.788V354.734ZM1728.58 324.036H1876.8C1871.95 283.052 1842.32 259.922 1801.87 259.922C1764.66 259.922 1732.9 284.704 1728.58 324.036Z" fill="#000212"/>
<path d="M2113.7 212.969C2173.01 212.969 2224.71 244.786 2224.71 340.185V492.183H2165.98V343.436C2165.98 291.153 2143.92 263.12 2100.21 263.12C2053.85 263.12 2026.35 297.069 2026.35 353.136V492.183H1968.15V216.22H2018.83L2025.28 252.354C2042.55 230.769 2068.93 213.022 2113.64 213.022L2113.7 212.969Z" fill="#000212"/>
<path d="M2262.71 114.905H2320.91V492.183H2262.71V114.905Z" fill="#000212"/>
<path d="M2335.51 216.22H2397.49L2474.56 429.135L2549.49 216.22H2611.48L2486.44 535.299C2469.18 580.014 2457.35 600 2416.89 600H2354.38V548.783H2395.31C2417.96 548.783 2422.81 543.4 2431.98 520.75L2443.28 494.315L2335.46 216.22H2335.51Z" fill="#000212"/>
</g>
<defs>
<linearGradient id="paint0_linear_143_15" x1="136.756" y1="288.009" x2="413.786" y2="326.808" gradientUnits="userSpaceOnUse">
<stop stop-color="#972EFF"/>
<stop offset="1" stop-color="#3153FC"/>
</linearGradient>
<clipPath id="clip0_143_15">
<rect width="2611.48" height="600" fill="white"/>
</clipPath>
</defs>
</svg>
